# xmcd
#
# Track frame offsets:
#	150
#	15648
#	34950
#	55142
#	74921
#	92356
#	111921
#	136717
#	156997
#	174444
#	194722
#	214912
#	229824
#	257911
#	270427
#	286844
#	309738
#
# Disc length: 4206 seconds
#
# Revision: 1
# Processed by: cddbd v1.5.2PL0 Copyright (c) Steve Scherf et al.
# Submitted via: audiograbber 1.83.01
#
DISCID=fc106c11
DTITLE=Various Artist - CDX Dance Trax Vol I
DYEAR=1993
DGENRE=Country
TTITLE0=Twister Alley - Dance
TTITLE1=Robert Ellis Orrall - Boom! It Was Over
TTITLE2=Ricky Lynn Gregg - Can You Feel It
TTITLE3=Twister Alley - Dance [Extended]
TTITLE4=Tracy Byrd - Holdin' Heaven
TTITLE5=Ricky Lynn Gregg - If I Had A Cheatin' Heart
TTITLE6=dwight Yoakam - Fast As You
TTITLE7=Shelby Lynne - Feelin' Kinda Lonely Tonight
TTITLE8=little Texas - God Blessed Texas*
TTITLE9=Gibson Miller Band - Texas Tatoo*
TTITLE10=Confederate Railroad - Trashy Women*
TTITLE11=Travis Tritt - T-R-O-U-B-L-E
TTITLE12=Pam Tillis - Queen Of Memphis*
TTITLE13=Tammy Wynette - Stand By Your Man
TTITLE14=george Strait - Baby Blue
TTITLE15=Patty Loveless - Liner
TTITLE16=Various Artist - RCA Liner
EXTD=
EXTT0=
EXTT1=
EXTT2=
EXTT3=
EXTT4=
EXTT5=
EXTT6=
EXTT7=
EXTT8=
EXTT9=
EXTT10=
EXTT11=
EXTT12=
EXTT13=
EXTT14=
EXTT15=
EXTT16=
PLAYORDER=
